<svg version="1.1" id="Layer_1" xmlns="http://www.w3.org/2000/svg" xmlns:xlink="http://www.w3.org/1999/xlink" x="0px" y="0px"
	 width="100%" viewBox="0 0 701 768" enable-background="new 0 0 701 768" xml:space="preserve">
<path fill="#000000" opacity="1.000000" stroke="none" 
	d="
M384.000000,1.000005 
	C489.963959,1.000000 595.927917,1.000000 701.945923,1.000000 
	C701.945923,256.876953 701.945923,512.753967 701.945923,769.000000 
	C640.311218,769.000000 578.621643,769.000000 516.359192,768.672241 
	C505.746796,759.739807 493.218292,756.621948 481.017670,753.091553 
	C454.803741,745.506165 427.722992,742.802368 400.700714,740.115784 
	C387.949066,738.848022 375.082306,738.014282 362.279388,738.142883 
	C338.445160,738.382446 314.611877,739.289368 290.793457,740.283569 
	C279.334747,740.761963 267.843964,741.579529 256.487030,743.122070 
	C240.264450,745.325439 224.020935,747.729614 208.029114,751.174866 
	C192.730576,754.470703 177.571854,758.799622 165.000000,769.000000 
	C110.375618,769.000000 55.751236,769.000000 1.000000,769.000000 
	C1.000000,637.644043 1.000000,506.288055 1.411226,374.318359 
	C2.548637,377.476196 3.241641,381.254547 4.007188,385.018127 
	C6.378941,396.678284 8.778289,408.332855 11.098139,420.390656 
	C14.848143,437.385620 20.088730,453.432404 29.245596,468.327515 
	C37.636806,481.060913 47.461597,491.897980 61.318375,499.006409 
	C72.378426,505.042572 84.033539,507.680969 96.102806,507.906738 
	C114.251549,508.246216 132.411530,507.984985 150.566727,507.979309 
	C152.305573,507.978760 154.044403,507.979218 155.998444,507.979218 
	C155.998444,481.970367 155.817322,456.822174 156.119904,431.679779 
	C156.200165,425.012146 157.300995,418.259308 158.744812,411.724915 
	C162.270950,395.766479 169.709122,381.797272 180.152664,369.102692 
	C190.007523,357.123718 201.911316,347.946899 215.622971,341.380188 
	C229.179871,334.887634 243.704636,331.227356 259.458862,331.900757 
	C282.278320,331.923584 304.633026,331.878662 327.452759,331.901550 
	C357.730103,331.978333 387.542511,331.951416 417.354736,332.010498 
	C433.812469,332.043091 449.377991,328.740936 463.429657,319.837646 
	C488.351318,304.046936 501.898407,281.229614 502.810944,251.882797 
	C503.669800,224.262085 503.016571,196.593750 502.990967,168.946381 
	C502.975555,152.294769 502.888214,135.643234 502.893311,118.526924 
	C502.967957,107.809921 503.397491,97.536591 502.878510,87.311401 
	C502.375458,77.400787 500.267578,67.714630 495.059998,58.608841 
	C488.083313,43.735241 476.879517,33.099129 463.822693,23.676220 
	C441.251556,8.740900 415.735413,5.527062 389.563416,3.106395 
	C387.427979,2.364180 385.713989,1.682095 384.000000,1.000005 
M676.828918,383.638947 
	C677.497131,375.758942 678.165344,367.878967 678.980774,359.072052 
	C678.931702,351.047363 678.882629,343.022705 678.980530,334.132538 
	C677.940979,323.761963 676.901428,313.391418 675.773560,302.222015 
	C675.515625,301.483215 675.166687,300.762756 675.013733,300.002838 
	C673.269775,291.338074 671.555603,282.667328 669.980042,273.179962 
	C669.651306,271.450592 669.437988,269.689514 668.973633,267.997345 
	C667.039856,260.951111 665.030579,253.925583 663.003052,246.103287 
	C660.279846,238.735123 657.556641,231.366943 654.779053,223.286346 
	C650.864441,216.822327 646.949768,210.358307 642.790955,203.266266 
	C641.851135,202.147675 641.032715,200.891953 639.950439,199.934326 
	C635.359192,195.871902 630.689636,191.897995 625.776550,187.249603 
	C613.974854,178.537201 600.336243,175.535431 586.082703,175.080627 
	C573.784241,174.688202 561.463196,174.999481 549.152161,174.999573 
	C540.553345,174.999649 531.954468,174.999588 523.535950,174.999588 
	C522.978394,204.306763 522.429993,233.133713 521.173096,262.365112 
	C520.915344,264.295441 520.978699,266.338684 520.346252,268.137238 
	C516.955811,277.778320 513.391968,287.358398 509.250916,297.262634 
	C508.837433,298.141907 508.490723,299.060455 508.000427,299.894592 
	C500.958374,311.874756 491.814819,322.066742 480.867889,330.521454 
	C470.732361,338.349518 459.331329,343.801544 447.034882,347.583801 
	C436.517090,350.818939 425.797302,351.078552 414.069794,351.018890 
	C364.952606,351.012329 315.835052,350.914948 266.718506,351.088867 
	C258.552887,351.117767 250.259735,351.627869 242.253601,353.130737 
	C221.271011,357.069366 204.756119,368.159271 191.853043,385.280945 
	C180.526199,400.311096 175.556335,417.375549 175.176392,435.599884 
	C174.569275,464.719604 175.108154,493.863190 175.010025,523.923523 
	C175.059723,533.620117 175.109406,543.316772 175.030853,553.496033 
	C175.030853,553.496033 175.168274,553.976196 175.022141,554.870605 
	C175.073273,557.584106 175.124405,560.297668 175.025162,563.936401 
	C175.018921,569.080505 174.859314,574.230347 175.049240,579.367188 
	C175.242142,584.584045 175.779892,589.788269 176.016190,595.882507 
	C176.062210,604.086731 177.661987,611.897278 181.986267,619.792358 
	C186.284988,626.208496 190.583710,632.624573 195.146439,639.666443 
	C203.380585,647.838989 212.403152,654.922729 223.654938,660.142822 
	C234.076553,664.458313 244.498169,668.773804 255.294220,673.786133 
	C256.687866,674.121765 258.078217,674.471802 259.475647,674.790771 
	C268.315979,676.808655 277.157867,678.819702 286.803619,680.998413 
	C287.382507,681.273315 287.942261,681.733704 288.543121,681.795715 
	C302.373047,683.223328 316.188995,685.476135 330.045837,685.769653 
	C345.695374,686.101135 361.473328,685.477417 377.024170,683.737915 
	C389.328674,682.361572 401.417938,678.854187 413.525116,675.967346 
	C433.124146,671.294128 451.858398,664.359192 468.524872,652.780396 
	C490.024811,637.843628 503.156616,618.115540 503.018860,590.988586 
	C502.920746,571.670593 503.000488,552.351685 503.000854,533.033142 
	C503.000885,531.424072 503.000854,529.815002 503.000854,528.166809 
	C499.951660,528.166809 497.475342,528.166809 494.071930,528.020081 
	C480.047241,528.069031 466.022552,528.117920 451.071014,528.020081 
	C434.713501,528.068848 418.355988,528.117676 401.071442,528.019958 
	C384.380554,528.068726 367.689667,528.117554 350.083618,528.019165 
	C346.811584,528.019165 343.539520,528.019165 340.114990,528.019165 
	C340.114990,520.977539 340.114990,514.510193 340.893585,508.002899 
	C341.928375,507.946411 342.963196,507.889893 344.924835,507.984192 
	C360.282532,507.933960 375.640228,507.883728 391.924805,507.984222 
	C407.282593,507.934113 422.640381,507.883972 438.925079,507.983917 
	C451.282898,507.933746 463.640686,507.883545 476.925476,507.982880 
	C485.616577,507.932953 494.307678,507.883057 503.925781,507.982300 
	C513.283691,507.932556 522.641541,507.882812 532.926270,507.982300 
	C553.994446,507.656189 575.097229,507.965668 596.120789,506.820251 
	C616.035095,505.735199 630.710449,494.790405 642.044373,478.857086 
	C651.527710,465.525330 657.590698,450.563843 662.935730,435.296661 
	C665.957153,426.666626 668.225769,417.773041 671.187256,408.282837 
	C672.824951,400.212982 674.462646,392.143097 676.828918,383.638947 
z"/>
<path fill="#000000" opacity="1.000000" stroke="none" 
	d="
M1.000000,309.000000 
	C1.000000,206.408218 1.000000,103.816444 1.000000,1.000000 
	C98.020782,1.000000 195.041733,1.000000 292.835205,1.256203 
	C293.069153,2.063673 292.530579,2.614939 291.542664,3.102607 
	C282.795685,4.022429 274.493256,4.967620 266.201324,5.997286 
	C249.303253,8.095627 232.699265,11.618793 216.960907,18.184853 
	C199.011230,25.673464 184.419785,37.207424 179.710968,57.033482 
	C176.929764,68.743568 175.844269,80.974045 175.174210,93.035942 
	C174.455017,105.982162 175.116287,119.005066 175.102081,132.458405 
	C175.029022,140.180420 175.029022,147.438538 175.029022,154.833420 
	C204.774887,154.833420 233.881042,154.833420 263.451782,154.906448 
	C288.813446,154.979477 313.710602,154.979477 339.166473,154.979477 
	C339.166473,159.742050 339.166473,163.867142 339.097656,168.421509 
	C338.274963,171.080673 340.984009,174.976624 335.525757,175.104767 
	C316.372467,175.084045 297.683594,175.125153 278.530304,175.101959 
	C258.374084,175.080734 238.682266,175.123840 218.526199,175.103973 
	C192.038223,175.082703 166.014511,175.124390 139.526535,175.102478 
	C122.236366,175.056885 105.300117,173.898758 88.767456,178.049698 
	C54.611691,186.625366 30.952726,207.388199 17.943207,240.129837 
	C9.507618,261.360077 6.185349,283.773956 2.934536,306.198944 
	C2.788700,307.204956 1.667106,308.069550 1.000000,309.000000 
z"/>
<path fill="#4584B5" opacity="1.000000" stroke="none" 
	d="
M139.990799,175.166077 
	C166.014511,175.124390 192.038223,175.082703 218.514481,175.458237 
	C218.063263,177.623016 217.448059,179.614014 216.210907,181.080261 
	C204.439301,195.031784 192.588684,208.917023 180.708221,222.776260 
	C168.070969,237.518295 155.314758,252.158707 142.725037,266.941040 
	C130.461533,281.340302 118.411728,295.921661 106.141640,310.315247 
	C93.437355,325.218170 80.509552,339.930603 67.809204,354.836823 
	C51.560970,373.907196 35.479027,393.119263 19.228277,412.187500 
	C16.813826,415.020538 13.867292,417.400177 11.166924,419.989594 
	C8.778289,408.332855 6.378941,396.678284 4.007188,385.018127 
	C3.241641,381.254547 2.548637,377.476196 1.411226,373.852295 
	C1.000000,361.979095 1.000000,349.958221 1.340704,337.415283 
	C3.103111,335.778839 4.743083,334.854980 5.910058,333.518158 
	C12.132327,326.390411 18.251396,319.172180 24.377981,311.961334 
	C37.164753,296.911560 49.914486,281.830292 62.716454,266.793488 
	C72.938995,254.786392 83.230141,242.837723 93.465691,230.841675 
	C104.560432,217.838684 115.673981,204.851166 126.681358,191.774429 
	C131.248688,186.348465 135.561981,180.708649 139.990799,175.166077 
z"/>
<path fill="#4583B5" opacity="1.000000" stroke="none" 
	d="
M262.987213,154.833420 
	C233.881042,154.833420 204.774887,154.833420 175.029022,154.833420 
	C175.029022,147.438538 175.029022,140.180420 175.415054,132.556061 
	C176.878387,133.711700 177.955688,135.233566 179.211380,137.007446 
	C180.640289,135.673904 181.823761,134.760574 182.776932,133.649643 
	C190.519623,124.625557 198.298035,115.630051 205.900787,106.488792 
	C210.112503,101.424805 214.008484,96.098206 218.362930,91.075943 
	C223.695145,109.137276 247.418701,120.284958 265.034729,106.794983 
	C278.479187,96.499519 280.870544,77.146347 271.750916,64.544281 
	C267.331848,58.437721 261.213654,54.378235 254.018753,51.773170 
	C254.968872,49.859123 255.652222,48.123287 256.793915,46.775791 
	C266.704865,35.078487 276.767761,23.509275 286.612122,11.756755 
	C288.761139,9.191205 290.216919,6.044988 291.991974,3.166204 
	C292.530579,2.614939 293.069153,2.063673 293.303894,1.256203 
	C323.020905,1.000000 353.041779,1.000000 383.531342,1.000005 
	C385.713989,1.682095 387.427979,2.364180 389.505341,3.435648 
	C388.269440,5.710899 386.667084,7.594166 385.071381,9.483049 
	C365.277374,32.913639 345.555664,56.405815 325.670105,79.758438 
	C307.286255,101.347557 288.684265,122.750870 270.291595,144.332535 
	C267.539185,147.562149 265.406555,151.319962 262.987213,154.833420 
z"/>
<path fill="#4A8ABD" opacity="1.000000" stroke="none" 
	d="
M139.526535,175.102478 
	C135.561981,180.708649 131.248688,186.348465 126.681358,191.774429 
	C115.673981,204.851166 104.560432,217.838684 93.465691,230.841675 
	C83.230141,242.837723 72.938995,254.786392 62.716454,266.793488 
	C49.914486,281.830292 37.164753,296.911560 24.377981,311.961334 
	C18.251396,319.172180 12.132327,326.390411 5.910058,333.518158 
	C4.743083,334.854980 3.103111,335.778839 1.340704,336.946655 
	C1.000000,327.979095 1.000000,318.958221 1.000000,309.468658 
	C1.667106,308.069550 2.788700,307.204956 2.934536,306.198944 
	C6.185349,283.773956 9.507618,261.360077 17.943207,240.129837 
	C30.952726,207.388199 54.611691,186.625366 88.767456,178.049698 
	C105.300117,173.898758 122.236366,175.056885 139.526535,175.102478 
z"/>
<path fill="#808080" opacity="1.000000" stroke="none" 
	d="
M165.468277,769.000000 
	C177.571854,758.799622 192.730576,754.470703 208.029114,751.174866 
	C224.020935,747.729614 240.264450,745.325439 256.487030,743.122070 
	C267.843964,741.579529 279.334747,740.761963 290.793457,740.283569 
	C314.611877,739.289368 338.445160,738.382446 362.279388,738.142883 
	C375.082306,738.014282 387.949066,738.848022 400.700714,740.115784 
	C427.722992,742.802368 454.803741,745.506165 481.017670,753.091553 
	C493.218292,756.621948 505.746796,759.739807 515.893127,768.672241 
	C512.638733,769.000000 509.277435,769.000000 505.348938,768.869751 
	C504.521149,768.826355 504.260590,768.913208 504.000000,769.000000 
	C504.000000,769.000000 503.500000,769.000000 503.240997,768.635132 
	C497.993958,765.519043 493.005920,762.767883 487.783661,759.747314 
	C482.030304,757.036743 476.572571,754.235229 469.422943,756.497925 
	C477.772095,759.507507 485.387268,762.252563 493.063965,765.319336 
	C493.750305,766.760803 494.375153,767.880371 495.000000,769.000000 
	C493.611115,769.000000 492.222198,769.000000 490.344208,768.665771 
	C486.202179,766.205872 482.784058,763.331665 478.851349,762.098206 
	C468.015198,758.699524 456.963623,755.987732 445.879913,752.839661 
	C445.514008,752.613098 445.265472,752.551086 445.016907,752.489136 
	C445.346252,752.657837 445.675598,752.826538 445.752075,753.229614 
	C443.312164,753.224792 440.977081,754.360657 439.397858,751.219482 
	C438.384033,749.202820 435.409515,753.700623 432.766083,750.307495 
	C431.477631,748.653564 426.526031,749.727905 423.238586,749.809082 
	C421.563629,749.850403 419.901886,750.426147 418.234161,750.760315 
	C418.181732,750.578064 418.129303,750.395813 418.076874,750.213501 
	C418.987183,749.654053 419.897461,749.094604 420.807739,748.535217 
	C420.733002,748.282654 420.658264,748.030090 420.583527,747.777588 
	C417.108826,748.426147 413.634125,749.074768 408.932404,749.952393 
	C410.897308,748.696655 411.835999,748.096741 412.774658,747.496887 
	C412.670471,747.248779 412.566254,747.000732 412.462067,746.752686 
	C408.427185,747.486328 404.392303,748.219971 399.313782,749.143372 
	C401.112946,747.907104 402.047150,747.265198 402.981354,746.623291 
	C402.875916,746.352600 402.770477,746.081970 402.665039,745.811340 
	C398.208618,746.556824 393.752197,747.302307 389.295776,748.047791 
	C389.219452,747.820312 389.143158,747.592834 389.066833,747.365356 
	C389.952393,746.716858 390.837982,746.068359 392.891693,744.564453 
	C385.058746,745.555420 378.742920,746.354370 372.427094,747.153381 
	C372.392883,746.945557 372.358643,746.737732 372.324402,746.529907 
	C373.769684,745.887817 375.214966,745.245789 375.760223,745.003540 
	C352.783600,745.003540 329.128418,745.003540 306.461273,745.003540 
	C306.937012,745.186035 308.393921,745.744812 309.850830,746.303589 
	C309.781830,746.569214 309.712830,746.834778 309.643829,747.100403 
	C303.253143,746.316711 296.862488,745.533081 290.471802,744.749390 
	C290.433441,745.045959 290.395081,745.342529 290.356720,745.639099 
	C291.469879,746.259827 292.583038,746.880554 293.696198,747.501282 
	C293.620239,747.672302 293.544281,747.843262 293.468323,748.014282 
	C288.791077,747.247925 284.113800,746.481628 279.436554,745.715332 
	C279.361908,745.956604 279.287231,746.197937 279.212585,746.439270 
	C280.112488,747.099548 281.012390,747.759888 282.880798,749.130859 
	C277.887299,748.202148 274.120117,747.501465 270.352966,746.800842 
	C270.269562,747.106079 270.186157,747.411255 270.102753,747.716492 
	C270.977112,748.322632 271.851501,748.928772 272.725891,749.534912 
	C270.160004,749.505554 267.935242,748.880676 265.677429,748.416931 
	C264.565674,748.188599 263.320740,747.976440 262.261230,748.247131 
	C259.321716,748.997803 256.503235,750.366089 253.534271,750.822693 
	C249.628296,751.423340 245.558701,751.026611 241.682281,751.732849 
	C238.290848,752.350647 235.035538,754.945374 231.778992,754.840393 
	C222.481750,754.540649 214.211273,757.991882 205.904419,761.058167 
	C200.965408,762.881409 196.615051,766.299194 192.000000,769.000000 
	C190.285645,769.000000 188.571289,769.000000 186.540802,768.743652 
	C186.482300,767.990662 186.739929,767.494141 187.355087,766.944214 
	C192.298141,764.733276 196.883667,762.575623 202.285233,760.034058 
	C195.398834,760.697876 189.524277,763.518250 186.657501,767.009827 
	C185.541718,767.678162 184.770874,768.339111 184.000015,769.000000 
	C177.978851,769.000000 171.957703,769.000000 165.468277,769.000000 
M203.383682,758.678955 
	C208.845947,757.467773 214.308212,756.256592 221.081482,754.754761 
	C214.407135,752.796265 206.782333,754.264099 201.369461,757.842468 
	C201.847580,758.037598 202.302826,758.223389 203.383682,758.678955 
M377.874451,742.017700 
	C378.476440,741.908386 379.078430,741.799133 379.680420,741.689819 
	C379.652313,741.382751 379.624237,741.075684 379.596161,740.768555 
	C370.891571,741.260010 362.186951,741.751465 353.482361,742.242920 
	C353.497162,742.625793 353.511963,743.008667 353.526764,743.391541 
	C361.389465,742.945923 369.252136,742.500366 377.874451,742.017700 
M313.640442,742.992676 
	C318.548492,742.992676 323.456543,742.992676 328.364594,742.992676 
	C324.206512,742.012268 320.084534,741.722778 315.959320,741.490173 
	C311.809692,741.256165 307.656860,741.078735 303.505402,740.876526 
	C303.481415,741.240662 303.457428,741.604858 303.433441,741.968994 
	C306.519226,742.310242 309.605011,742.651489 313.640442,742.992676 
M460.312012,751.258240 
	C458.576691,751.485291 456.841400,751.712280 455.106079,751.939270 
	C455.094330,752.257629 455.082581,752.576050 455.070862,752.894409 
	C458.979187,753.917725 462.887543,754.941040 466.697174,755.938538 
	C467.142334,754.793945 467.449493,754.004211 467.765686,753.191223 
	C465.520050,752.628662 463.280365,752.067627 460.312012,751.258240 
z"/>
<path fill="#8D8D8D" opacity="1.000000" stroke="none" 
	d="
M445.997284,753.004272 
	C456.963623,755.987732 468.015198,758.699524 478.851349,762.098206 
	C482.784058,763.331665 486.202179,766.205872 489.927551,768.665771 
	C478.979095,769.000000 467.958221,769.000000 456.469269,768.625000 
	C456.000793,767.500000 456.000397,766.750000 456.096436,765.954651 
	C456.192841,765.909302 456.207550,765.655151 456.207550,765.655151 
	C456.207550,765.655151 456.000000,766.000000 455.661713,765.918457 
	C447.350037,759.916382 437.188354,761.715942 428.504181,758.255981 
	C426.250427,757.358032 423.836090,756.673889 421.435181,756.373596 
	C416.338470,755.736023 411.169434,755.638245 406.092194,754.894836 
	C401.974579,754.291992 397.987427,752.563660 393.871216,752.239929 
	C387.617249,751.748047 381.301636,752.044495 375.012268,751.994202 
	C374.183716,751.987549 373.335876,752.009705 372.531067,751.848450 
	C369.751587,751.291504 366.990204,750.175232 364.216431,750.158142 
	C358.756989,750.124512 353.279907,750.532837 347.834961,751.030029 
	C334.196686,752.275024 320.455109,748.522339 306.856750,751.935669 
	C305.626343,752.244507 304.209320,751.715393 302.890259,751.786133 
	C300.523865,751.913086 298.165710,752.196655 295.804779,752.421692 
	C294.336121,752.561707 292.871704,752.770813 291.400085,752.851135 
	C287.073181,753.087219 282.701660,752.967957 278.425140,753.553955 
	C272.269531,754.397400 266.177765,755.715881 260.067383,756.877258 
	C255.713074,757.704834 251.281601,758.297119 247.046570,759.544434 
	C239.411072,761.793396 232.496689,766.388550 224.120773,766.354614 
	C223.084106,766.350403 222.040421,768.075989 221.000000,769.000000 
	C211.645767,769.000000 202.291550,769.000000 192.468658,769.000000 
	C196.615051,766.299194 200.965408,762.881409 205.904419,761.058167 
	C214.211273,757.991882 222.481750,754.540649 231.778992,754.840393 
	C235.035538,754.945374 238.290848,752.350647 241.682281,751.732849 
	C245.558701,751.026611 249.628296,751.423340 253.534271,750.822693 
	C256.503235,750.366089 259.321716,748.997803 262.261230,748.247131 
	C263.320740,747.976440 264.565674,748.188599 265.677429,748.416931 
	C267.935242,748.880676 270.160004,749.505554 272.725891,749.534912 
	C271.851501,748.928772 270.977112,748.322632 270.102753,747.716492 
	C270.186157,747.411255 270.269562,747.106079 270.352966,746.800842 
	C274.120117,747.501465 277.887299,748.202148 282.880798,749.130859 
	C281.012390,747.759888 280.112488,747.099548 279.212585,746.439270 
	C279.287231,746.197937 279.361908,745.956604 279.436554,745.715332 
	C284.113800,746.481628 288.791077,747.247925 293.468323,748.014282 
	C293.544281,747.843262 293.620239,747.672302 293.696198,747.501282 
	C292.583038,746.880554 291.469879,746.259827 290.356720,745.639099 
	C290.395081,745.342529 290.433441,745.045959 290.471802,744.749390 
	C296.862488,745.533081 303.253143,746.316711 309.643829,747.100403 
	C309.712830,746.834778 309.781830,746.569214 309.850830,746.303589 
	C308.393921,745.744812 306.937012,745.186035 306.461273,745.003540 
	C329.128418,745.003540 352.783600,745.003540 375.760223,745.003540 
	C375.214966,745.245789 373.769684,745.887817 372.324402,746.529907 
	C372.358643,746.737732 372.392883,746.945557 372.427094,747.153381 
	C378.742920,746.354370 385.058746,745.555420 392.891693,744.564453 
	C390.837982,746.068359 389.952393,746.716858 389.066833,747.365356 
	C389.143158,747.592834 389.219452,747.820312 389.295776,748.047791 
	C393.752197,747.302307 398.208618,746.556824 402.665039,745.811340 
	C402.770477,746.081970 402.875916,746.352600 402.981354,746.623291 
	C402.047150,747.265198 401.112946,747.907104 399.313782,749.143372 
	C404.392303,748.219971 408.427185,747.486328 412.462067,746.752686 
	C412.566254,747.000732 412.670471,747.248779 412.774658,747.496887 
	C411.835999,748.096741 410.897308,748.696655 408.932404,749.952393 
	C413.634125,749.074768 417.108826,748.426147 420.583527,747.777588 
	C420.658264,748.030090 420.733002,748.282654 420.807739,748.535217 
	C419.897461,749.094604 418.987183,749.654053 418.076874,750.213501 
	C418.129303,750.395813 418.181732,750.578064 418.234161,750.760315 
	C419.901886,750.426147 421.563629,749.850403 423.238586,749.809082 
	C426.526031,749.727905 431.477631,748.653564 432.766083,750.307495 
	C435.409515,753.700623 438.384033,749.202820 439.397858,751.219482 
	C440.977081,754.360657 443.312164,753.224792 445.749634,753.231934 
	C446.000000,753.000000 445.997284,753.004211 445.997284,753.004272 
M243.872696,752.662659 
	C243.938263,752.550598 244.003830,752.438477 244.069382,752.326416 
	C243.967087,752.373474 243.864792,752.420593 243.872696,752.662659 
M244.541199,759.507263 
	C244.541199,759.507263 244.486038,759.531921 244.541199,759.507263 
M238.501755,753.458496 
	C238.501755,753.458496 238.528076,753.516968 238.501755,753.458496 
M258.452606,751.492737 
	C258.452606,751.492737 258.511078,751.465759 258.452606,751.492737 
z"/>
<path fill="#9C9C9C" opacity="1.000000" stroke="none" 
	d="
M439.000000,769.000000 
	C424.312439,769.000000 409.624878,769.000000 394.456848,768.676636 
	C393.709229,767.798279 393.442078,767.243408 393.174927,766.688477 
	C392.783264,767.458984 392.391632,768.229492 392.000000,769.000000 
	C391.555542,769.000000 391.111115,769.000000 390.282745,768.652344 
	C388.634613,767.464172 387.472473,766.206421 386.085602,765.866943 
	C382.877563,765.081726 379.570526,764.665771 376.285736,764.237183 
	C370.419647,763.471802 364.555847,762.539978 358.660919,762.197632 
	C354.903015,761.979553 351.093048,762.731079 347.302460,762.989868 
	C333.051178,763.963257 318.642975,760.092773 304.462433,764.668884 
	C300.991028,765.789062 296.990448,765.164734 293.343689,765.894531 
	C291.752380,766.213013 290.439392,767.922363 289.000000,769.000000 
	C275.979095,769.000000 262.958221,769.000000 249.485748,768.634644 
	C251.300003,766.591736 253.348145,764.005310 255.871033,763.401062 
	C264.648193,761.298828 273.556366,759.662720 282.484344,758.308044 
	C286.436218,757.708435 290.554749,758.206970 295.206451,758.206970 
	C298.104126,753.303162 301.619202,756.899719 304.897766,758.896179 
	C309.489838,753.960083 310.563599,754.015686 316.909393,757.029297 
	C318.716583,757.887512 322.695557,757.986511 323.225739,757.047974 
	C325.324066,753.333679 328.448975,754.031311 331.508148,754.011719 
	C338.507660,753.966919 345.516205,753.803223 352.502411,754.111206 
	C354.721924,754.209106 356.834015,755.832397 359.084198,756.412903 
	C361.159241,756.948181 363.803314,757.932129 365.415649,757.136292 
	C371.599701,754.083496 372.983582,753.992981 378.274445,758.685913 
	C381.518799,756.059204 384.936676,754.025269 388.143280,758.589844 
	C393.579102,756.624512 393.579102,756.624512 395.644165,760.725647 
	C399.246765,755.356812 403.904388,759.515259 407.865417,759.736572 
	C414.361786,760.099487 420.854126,761.890381 427.166290,763.709900 
	C431.277557,764.895081 435.066620,767.197876 439.000000,769.000000 
z"/>
<path fill="#959595" opacity="1.000000" stroke="none" 
	d="
M439.467590,769.000000 
	C435.066620,767.197876 431.277557,764.895081 427.166290,763.709900 
	C420.854126,761.890381 414.361786,760.099487 407.865417,759.736572 
	C403.904388,759.515259 399.246765,755.356812 395.644165,760.725647 
	C393.579102,756.624512 393.579102,756.624512 388.143280,758.589844 
	C384.936676,754.025269 381.518799,756.059204 378.274445,758.685913 
	C372.983582,753.992981 371.599701,754.083496 365.415649,757.136292 
	C363.803314,757.932129 361.159241,756.948181 359.084198,756.412903 
	C356.834015,755.832397 354.721924,754.209106 352.502411,754.111206 
	C345.516205,753.803223 338.507660,753.966919 331.508148,754.011719 
	C328.448975,754.031311 325.324066,753.333679 323.225739,757.047974 
	C322.695557,757.986511 318.716583,757.887512 316.909393,757.029297 
	C310.563599,754.015686 309.489838,753.960083 304.897766,758.896179 
	C301.619202,756.899719 298.104126,753.303162 295.206451,758.206970 
	C290.554749,758.206970 286.436218,757.708435 282.484344,758.308044 
	C273.556366,759.662720 264.648193,761.298828 255.871033,763.401062 
	C253.348145,764.005310 251.300003,766.591736 249.017090,768.634644 
	C239.979111,769.000000 230.958206,769.000000 221.468658,769.000000 
	C222.040421,768.075989 223.084106,766.350403 224.120773,766.354614 
	C232.496689,766.388550 239.411072,761.793396 247.046570,759.544434 
	C251.281601,758.297119 255.713074,757.704834 260.067383,756.877258 
	C266.177765,755.715881 272.269531,754.397400 278.425140,753.553955 
	C282.701660,752.967957 287.073181,753.087219 291.400085,752.851135 
	C292.871704,752.770813 294.336121,752.561707 295.804779,752.421692 
	C298.165710,752.196655 300.523865,751.913086 302.890259,751.786133 
	C304.209320,751.715393 305.626343,752.244507 306.856750,751.935669 
	C320.455109,748.522339 334.196686,752.275024 347.834961,751.030029 
	C353.279907,750.532837 358.756989,750.124512 364.216431,750.158142 
	C366.990204,750.175232 369.751587,751.291504 372.531067,751.848450 
	C373.335876,752.009705 374.183716,751.987549 375.012268,751.994202 
	C381.301636,752.044495 387.617249,751.748047 393.871216,752.239929 
	C397.987427,752.563660 401.974579,754.291992 406.092194,754.894836 
	C411.169434,755.638245 416.338470,755.736023 421.435181,756.373596 
	C423.836090,756.673889 426.250427,757.358032 428.504181,758.255981 
	C437.188354,761.715942 447.350037,759.916382 455.661713,765.918457 
	C456.000397,766.750000 456.000793,767.500000 456.000610,768.625000 
	C450.645081,769.000000 445.290131,769.000000 439.467590,769.000000 
z"/>
<path fill="#A4A4A4" opacity="1.000000" stroke="none" 
	d="
M289.468689,769.000000 
	C290.439392,767.922363 291.752380,766.213013 293.343689,765.894531 
	C296.990448,765.164734 300.991028,765.789062 304.462433,764.668884 
	C318.642975,760.092773 333.051178,763.963257 347.302460,762.989868 
	C351.093048,762.731079 354.903015,761.979553 358.660919,762.197632 
	C364.555847,762.539978 370.419647,763.471802 376.285736,764.237183 
	C379.570526,764.665771 382.877563,765.081726 386.085602,765.866943 
	C387.472473,766.206421 388.634613,767.464172 389.949402,768.652344 
	C356.645782,769.000000 323.291534,769.000000 289.468689,769.000000 
z"/>
<path fill="#9C9C9C" opacity="1.000000" stroke="none" 
	d="
M488.017883,760.016663 
	C493.005920,762.767883 497.993958,765.519043 502.990997,768.635132 
	C502.250000,769.000000 501.500000,769.000000 500.495148,768.735962 
	C499.493988,767.640015 498.747681,766.808105 497.999207,765.989380 
	C497.997009,766.002441 498.023315,765.999146 497.802856,765.737671 
	C494.396332,763.651306 491.210236,761.826355 488.014038,759.999146 
	C488.003998,759.996826 488.017883,760.016663 488.017883,760.016663 
z"/>
<path fill="#959595" opacity="1.000000" stroke="none" 
	d="
M495.375000,769.000000 
	C494.375153,767.880371 493.750305,766.760803 493.062744,765.320557 
	C493.000000,765.000000 492.998535,765.002441 493.361816,765.057129 
	C495.157837,765.407654 496.590576,765.703369 498.023315,765.999146 
	C498.023315,765.999146 497.997009,766.002441 497.990234,766.367493 
	C497.988953,767.488342 497.994476,768.244202 498.000000,769.000000 
	C497.250000,769.000000 496.500000,769.000000 495.375000,769.000000 
z"/>
<path fill="#808080" opacity="1.000000" stroke="none" 
	d="
M498.333313,769.000000 
	C497.994476,768.244202 497.988953,767.488342 497.992401,766.354370 
	C498.747681,766.808105 499.493988,767.640015 500.120148,768.735962 
	C499.555542,769.000000 499.111115,769.000000 498.333313,769.000000 
z"/>
<path fill="#A4A4A4" opacity="1.000000" stroke="none" 
	d="
M392.333313,769.000000 
	C392.391632,768.229492 392.783264,767.458984 393.174927,766.688477 
	C393.442078,767.243408 393.709229,767.798279 393.988190,768.676636 
	C393.555542,769.000000 393.111115,769.000000 392.333313,769.000000 
z"/>
<path fill="#959595" opacity="1.000000" stroke="none" 
	d="
M186.997559,766.997559 
	C186.739929,767.494141 186.482300,767.990662 186.112335,768.743652 
	C185.555557,769.000000 185.111099,769.000000 184.333344,769.000000 
	C184.770874,768.339111 185.541718,767.678162 186.656281,767.008606 
	C187.000000,767.000000 186.997559,766.997559 186.997559,766.997559 
z"/>
<path fill="#9C9C9C" opacity="1.000000" stroke="none" 
	d="
M504.250000,769.000000 
	C504.260590,768.913208 504.521149,768.826355 504.890869,768.869751 
	C505.000000,769.000000 504.500000,769.000000 504.250000,769.000000 
z"/>
<path fill="#3974A4" opacity="1.000000" stroke="none" 
	d="
M335.990204,175.166595 
	C340.984009,174.976624 338.274963,171.080673 339.442871,168.405090 
	C340.766449,167.325394 341.853180,166.845245 342.557831,166.033401 
	C348.859009,158.773880 355.081879,151.446548 361.348938,144.157318 
	C372.045715,131.715851 382.802002,119.325233 393.452026,106.843895 
	C406.142334,91.971451 418.725250,77.007446 431.395355,62.117699 
	C442.240265,49.372829 453.142548,36.676762 464.019440,23.959120 
	C476.879517,33.099129 488.083313,43.735241 494.717590,58.575890 
	C492.931580,59.448711 490.937347,59.558460 489.989410,60.610729 
	C482.769806,68.625320 475.686737,76.766235 468.690552,84.978065 
	C456.103088,99.752655 443.648956,114.640869 431.058716,129.413086 
	C418.680603,143.936417 406.157349,158.336060 393.781036,172.860886 
	C381.192505,187.634750 368.751465,202.534241 356.161194,217.306580 
	C343.783173,231.829849 331.263580,246.232407 318.869690,260.742249 
	C301.844543,280.674072 284.860626,300.641235 267.905426,320.632599 
	C264.820984,324.269379 261.958832,328.094727 258.994080,331.833008 
	C243.704636,331.227356 229.179871,334.887634 215.622971,341.380188 
	C201.911316,347.946899 190.007523,357.123718 180.152664,369.102692 
	C169.709122,381.797272 162.270950,395.766479 158.744812,411.724915 
	C157.300995,418.259308 156.200165,425.012146 156.119904,431.679779 
	C155.817322,456.822174 155.998444,481.970367 155.998444,507.979218 
	C154.044403,507.979218 152.305573,507.978760 150.566727,507.979309 
	C132.411530,507.984985 114.251549,508.246216 96.102806,507.906738 
	C84.033539,507.680969 72.378426,505.042572 61.379005,498.667969 
	C65.349777,492.669708 69.410378,487.031921 73.853996,481.714203 
	C82.362083,471.532623 91.107361,461.549591 99.718414,451.453613 
	C110.479713,438.836578 121.192924,426.178558 131.949478,413.557526 
	C140.556534,403.458527 149.220184,393.407715 157.817612,383.300598 
	C170.173965,368.774445 182.473877,354.200256 194.834549,339.677765 
	C203.435165,329.572968 212.116150,319.536621 220.727264,309.440674 
	C231.488647,296.823761 242.203888,284.167419 252.960388,271.546265 
	C261.567322,261.447327 270.228119,251.394196 278.825623,241.287201 
	C291.182190,226.761154 303.435181,212.146393 315.866669,197.684875 
	C322.427643,190.052536 329.273163,182.664780 335.990204,175.166595 
z"/>
<path fill="#FFE872" opacity="1.000000" stroke="none" 
	d="
M175.162537,522.996704 
	C175.108154,493.863190 174.569275,464.719604 175.176392,435.599884 
	C175.556335,417.375549 180.526199,400.311096 191.853043,385.280945 
	C204.756119,368.159271 221.271011,357.069366 242.253601,353.130737 
	C250.259735,351.627869 258.552887,351.117767 266.718506,351.088867 
	C315.835052,350.914948 364.952606,351.012329 414.464966,351.428772 
	C412.436829,353.440063 409.971710,354.982086 407.597351,356.653137 
	C396.593353,364.397858 385.582397,372.133392 374.632782,379.954620 
	C342.869171,402.643127 311.133423,425.370667 279.387543,448.084076 
	C257.098175,464.031586 234.792252,479.956085 212.528564,495.939362 
	C200.036606,504.907471 187.615540,513.974365 175.162537,522.996704 
z"/>
<path fill="#316A99" opacity="1.000000" stroke="none" 
	d="
M502.833191,118.991669 
	C502.888214,135.643234 502.975555,152.294769 502.990967,168.946381 
	C503.016571,196.593750 503.669800,224.262085 502.810944,251.882797 
	C501.898407,281.229614 488.351318,304.046936 463.429657,319.837646 
	C449.377991,328.740936 433.812469,332.043091 417.354736,332.010498 
	C387.542511,331.951416 357.730103,331.978333 327.353851,331.578888 
	C323.358551,329.048065 323.699738,327.023743 326.278656,324.086975 
	C336.457367,312.495728 346.404266,300.700134 356.389160,288.939575 
	C367.015411,276.423615 377.538971,263.820282 388.196686,251.331299 
	C398.857880,238.838272 409.693237,226.493759 420.335815,213.985077 
	C432.587158,199.585571 444.674103,185.046310 456.899750,170.624817 
	C470.736969,154.302322 484.624390,138.022095 498.576874,121.798271 
	C499.642548,120.559074 501.398224,119.913292 502.833191,118.991669 
z"/>
<path fill="#3D7AAB" opacity="1.000000" stroke="none" 
	d="
M335.525757,175.104767 
	C329.273163,182.664780 322.427643,190.052536 315.866669,197.684875 
	C303.435181,212.146393 291.182190,226.761154 278.825623,241.287201 
	C270.228119,251.394196 261.567322,261.447327 252.960388,271.546265 
	C242.203888,284.167419 231.488647,296.823761 220.727264,309.440674 
	C212.116150,319.536621 203.435165,329.572968 194.834549,339.677765 
	C182.473877,354.200256 170.173965,368.774445 157.817612,383.300598 
	C149.220184,393.407715 140.556534,403.458527 131.949478,413.557526 
	C121.192924,426.178558 110.479713,438.836578 99.718414,451.453613 
	C91.107361,461.549591 82.362083,471.532623 73.853996,481.714203 
	C69.410378,487.031921 65.349777,492.669708 61.055557,498.501404 
	C47.461597,491.897980 37.636806,481.060913 29.573326,468.264526 
	C30.919325,466.876373 32.105194,465.983856 33.043991,464.881012 
	C43.150311,453.008545 53.177799,441.068787 63.306610,429.215607 
	C73.976151,416.729614 84.777565,404.356262 95.438957,391.863342 
	C108.142708,376.977203 120.734589,361.995575 133.420593,347.094208 
	C143.744080,334.967926 154.165573,322.925049 164.487305,310.797302 
	C175.128571,298.294037 185.658386,285.695862 196.317001,273.207520 
	C206.979050,260.715210 217.781326,248.342636 228.447174,235.853531 
	C241.264099,220.845642 254.048752,205.809555 266.747345,190.701584 
	C270.988098,185.656189 274.921051,180.352112 278.994720,175.166275 
	C297.683594,175.125153 316.372467,175.084045 335.525757,175.104767 
z"/>
<path fill="#FFE467" opacity="1.000000" stroke="none" 
	d="
M175.086273,523.460083 
	C187.615540,513.974365 200.036606,504.907471 212.528564,495.939362 
	C234.792252,479.956085 257.098175,464.031586 279.387543,448.084076 
	C311.133423,425.370667 342.869171,402.643127 374.632782,379.954620 
	C385.582397,372.133392 396.593353,364.397858 407.597351,356.653137 
	C409.971710,354.982086 412.436829,353.440063 414.928284,351.502136 
	C425.797302,351.078552 436.517090,350.818939 447.034882,347.583801 
	C459.331329,343.801544 470.732361,338.349518 480.867889,330.521454 
	C491.814819,322.066742 500.958374,311.874756 508.000427,299.894592 
	C508.490723,299.060455 508.837433,298.141907 509.959137,297.118713 
	C512.298279,296.317627 514.134705,295.950378 515.530090,294.961029 
	C550.723755,270.008179 585.882507,245.006134 621.017090,219.970215 
	C628.417358,214.696991 635.698914,209.257294 643.035156,203.894302 
	C646.949768,210.358307 650.864441,216.822327 654.476013,223.704865 
	C652.381226,225.582855 650.665161,227.148834 648.785767,228.485107 
	C633.068848,239.659805 617.302429,250.764893 601.588684,261.944092 
	C579.509521,277.651825 557.453979,293.392822 535.404358,309.141968 
	C508.079712,328.658844 480.788025,348.221924 453.450928,367.721283 
	C430.849487,383.842743 408.178375,399.866516 385.581909,415.994904 
	C353.921997,438.592285 322.308075,461.254120 290.664093,483.873901 
	C269.567291,498.954376 248.458679,514.018372 227.343536,529.073181 
	C212.047485,539.979065 196.775528,550.920288 181.360443,561.655579 
	C179.760254,562.770020 177.258804,562.590332 175.175537,563.011169 
	C175.124405,560.297668 175.073273,557.584106 175.205292,554.320435 
	C175.532944,553.466736 175.456497,553.214478 175.159103,553.013367 
	C175.109406,543.316772 175.059723,533.620117 175.086273,523.460083 
z"/>
<path fill="#407DAE" opacity="1.000000" stroke="none" 
	d="
M278.530304,175.101959 
	C274.921051,180.352112 270.988098,185.656189 266.747345,190.701584 
	C254.048752,205.809555 241.264099,220.845642 228.447174,235.853531 
	C217.781326,248.342636 206.979050,260.715210 196.317001,273.207520 
	C185.658386,285.695862 175.128571,298.294037 164.487305,310.797302 
	C154.165573,322.925049 143.744080,334.967926 133.420593,347.094208 
	C120.734589,361.995575 108.142708,376.977203 95.438957,391.863342 
	C84.777565,404.356262 73.976151,416.729614 63.306610,429.215607 
	C53.177799,441.068787 43.150311,453.008545 33.043991,464.881012 
	C32.105194,465.983856 30.919325,466.876373 29.520454,467.929535 
	C20.088730,453.432404 14.848143,437.385620 11.098133,420.390656 
	C13.867292,417.400177 16.813826,415.020538 19.228277,412.187500 
	C35.479027,393.119263 51.560970,373.907196 67.809204,354.836823 
	C80.509552,339.930603 93.437355,325.218170 106.141640,310.315247 
	C118.411728,295.921661 130.461533,281.340302 142.725037,266.941040 
	C155.314758,252.158707 168.070969,237.518295 180.708221,222.776260 
	C192.588684,208.917023 204.439301,195.031784 216.210907,181.080261 
	C217.448059,179.614014 218.063263,177.623016 218.978745,175.521210 
	C238.682266,175.123840 258.374084,175.080734 278.530304,175.101959 
z"/>
<path fill="#3570A0" opacity="1.000000" stroke="none" 
	d="
M502.893280,118.526932 
	C501.398224,119.913292 499.642548,120.559074 498.576874,121.798271 
	C484.624390,138.022095 470.736969,154.302322 456.899750,170.624817 
	C444.674103,185.046310 432.587158,199.585571 420.335815,213.985077 
	C409.693237,226.493759 398.857880,238.838272 388.196686,251.331299 
	C377.538971,263.820282 367.015411,276.423615 356.389160,288.939575 
	C346.404266,300.700134 336.457367,312.495728 326.278656,324.086975 
	C323.699738,327.023743 323.358551,329.048065 326.888794,331.511047 
	C304.633026,331.878662 282.278320,331.923584 259.458862,331.900757 
	C261.958832,328.094727 264.820984,324.269379 267.905426,320.632599 
	C284.860626,300.641235 301.844543,280.674072 318.869690,260.742249 
	C331.263580,246.232407 343.783173,231.829849 356.161194,217.306580 
	C368.751465,202.534241 381.192505,187.634750 393.781036,172.860886 
	C406.157349,158.336060 418.680603,143.936417 431.058716,129.413086 
	C443.648956,114.640869 456.103088,99.752655 468.690552,84.978065 
	C475.686737,76.766235 482.769806,68.625320 489.989410,60.610729 
	C490.937347,59.558460 492.931580,59.448711 494.783600,58.935364 
	C500.267578,67.714630 502.375458,77.400787 502.878510,87.311401 
	C503.397491,97.536591 502.967957,107.809921 502.893280,118.526932 
z"/>
<path fill="#FFE161" opacity="1.000000" stroke="none" 
	d="
M175.100342,563.473755 
	C177.258804,562.590332 179.760254,562.770020 181.360443,561.655579 
	C196.775528,550.920288 212.047485,539.979065 227.343536,529.073181 
	C248.458679,514.018372 269.567291,498.954376 290.664093,483.873901 
	C322.308075,461.254120 353.921997,438.592285 385.581909,415.994904 
	C408.178375,399.866516 430.849487,383.842743 453.450928,367.721283 
	C480.788025,348.221924 508.079712,328.658844 535.404358,309.141968 
	C557.453979,293.392822 579.509521,277.651825 601.588684,261.944092 
	C617.302429,250.764893 633.068848,239.659805 648.785767,228.485107 
	C650.665161,227.148834 652.381226,225.582855 654.503174,224.061066 
	C657.556641,231.366943 660.279846,238.735123 662.864136,246.799576 
	C661.452026,248.806046 660.336731,250.333588 658.880066,251.390930 
	C649.872253,257.929443 640.791016,264.366913 631.727905,270.829163 
	C605.077148,289.831879 578.415833,308.819733 551.772827,327.833405 
	C516.610229,352.927063 481.466980,378.047791 446.304260,403.141235 
	C422.095734,420.417328 397.860809,437.656403 373.650909,454.930573 
	C338.621704,479.924500 303.596802,504.924561 268.584747,529.942566 
	C243.847321,547.618835 219.166183,565.374146 194.386978,582.991577 
	C188.462738,587.203552 182.247849,591.006775 176.166626,594.997986 
	C175.779892,589.788269 175.242142,584.584045 175.049240,579.367188 
	C174.859314,574.230347 175.018921,569.080505 175.100342,563.473755 
z"/>
<path fill="#FFE05B" opacity="1.000000" stroke="none" 
	d="
M176.091400,595.440247 
	C182.247849,591.006775 188.462738,587.203552 194.386978,582.991577 
	C219.166183,565.374146 243.847321,547.618835 268.584747,529.942566 
	C303.596802,504.924561 338.621704,479.924500 373.650909,454.930573 
	C397.860809,437.656403 422.095734,420.417328 446.304260,403.141235 
	C481.466980,378.047791 516.610229,352.927063 551.772827,327.833405 
	C578.415833,308.819733 605.077148,289.831879 631.727905,270.829163 
	C640.791016,264.366913 649.872253,257.929443 658.880066,251.390930 
	C660.336731,250.333588 661.452026,248.806046 662.887085,247.194168 
	C665.030579,253.925583 667.039856,260.951111 668.973633,267.997345 
	C669.437988,269.689514 669.651306,271.450592 669.572754,273.653259 
	C651.878723,286.228790 634.499023,298.200775 617.322937,310.458160 
	C569.567749,344.537720 521.931091,378.783295 474.182922,412.872772 
	C432.384277,442.714630 390.483490,472.413422 348.696960,502.272186 
	C346.783203,503.639679 345.548798,505.957916 343.997986,507.833374 
	C342.963196,507.889893 341.928375,507.946411 340.150574,508.063110 
	C337.284210,509.408936 335.070862,510.567596 333.051178,511.999390 
	C310.695618,527.848022 288.343292,543.701416 266.044067,559.629089 
	C244.017120,575.362305 222.083435,591.226257 200.039169,606.934998 
	C194.118317,611.154175 187.943375,615.016785 181.885101,619.043030 
	C177.661987,611.897278 176.062210,604.086731 176.091400,595.440247 
z"/>
<path fill="#3D7AAB" opacity="1.000000" stroke="none" 
	d="
M463.822693,23.676224 
	C453.142548,36.676762 442.240265,49.372829 431.395355,62.117699 
	C418.725250,77.007446 406.142334,91.971451 393.452026,106.843895 
	C382.802002,119.325233 372.045715,131.715851 361.348938,144.157318 
	C355.081879,151.446548 348.859009,158.773880 342.557831,166.033401 
	C341.853180,166.845245 340.766449,167.325394 339.511658,167.975800 
	C339.166473,163.867142 339.166473,159.742050 339.166473,154.979477 
	C313.710602,154.979477 288.813446,154.979477 263.451782,154.906448 
	C265.406555,151.319962 267.539185,147.562149 270.291595,144.332535 
	C288.684265,122.750870 307.286255,101.347557 325.670105,79.758438 
	C345.555664,56.405815 365.277374,32.913639 385.071381,9.483049 
	C386.667084,7.594166 388.269440,5.710899 389.926788,3.495778 
	C415.735413,5.527062 441.251556,8.740900 463.822693,23.676224 
z"/>
<path fill="#FFD43B" opacity="1.000000" stroke="none" 
	d="
M494.998962,528.166748 
	C497.475342,528.166809 499.951660,528.166809 503.000854,528.166809 
	C503.000854,529.815002 503.000885,531.424072 503.000854,533.033142 
	C503.000488,552.351685 502.920746,571.670593 503.018860,590.988586 
	C503.156616,618.115540 490.024811,637.843628 468.524872,652.780396 
	C451.858398,664.359192 433.124146,671.294128 413.525116,675.967346 
	C401.417938,678.854187 389.328674,682.361572 377.024170,683.737915 
	C361.473328,685.477417 345.695374,686.101135 330.045837,685.769653 
	C316.188995,685.476135 302.373047,683.223328 288.543121,681.795715 
	C287.942261,681.733704 287.382507,681.273315 286.467346,680.585693 
	C286.909760,679.357788 287.581573,678.393127 288.482513,677.748901 
	C321.834961,653.898621 355.185791,630.045898 388.610321,606.296936 
	C392.466370,603.557129 396.748505,601.416931 400.907715,599.433105 
	C400.449921,617.640625 416.182739,633.202332 434.733459,631.140869 
	C450.552795,629.382874 465.236694,612.248169 460.207245,593.330811 
	C457.114197,581.696899 449.252869,575.357056 439.154419,570.851440 
	C440.155029,569.978760 440.830261,569.234375 441.627899,568.659912 
	C455.165253,558.910339 468.802887,549.297058 482.219574,539.384521 
	C486.762329,536.028259 490.754944,531.927368 494.998962,528.166748 
z"/>
<path fill="#FFDD55" opacity="1.000000" stroke="none" 
	d="
M344.461426,507.908783 
	C345.548798,505.957916 346.783203,503.639679 348.696960,502.272186 
	C390.483490,472.413422 432.384277,442.714630 474.182922,412.872772 
	C521.931091,378.783295 569.567749,344.537720 617.322937,310.458160 
	C634.499023,298.200775 651.878723,286.228790 669.499512,274.062317 
	C671.555603,282.667328 673.269775,291.338074 675.013733,300.002838 
	C675.166687,300.762756 675.515625,301.483215 675.482178,302.678223 
	C663.682007,311.285156 652.154236,319.409332 640.667847,327.591461 
	C599.823914,356.685822 558.995544,385.801910 518.158691,414.906067 
	C477.322235,444.010040 436.467804,473.088867 395.690857,502.275940 
	C393.779694,503.643921 392.546753,505.959351 390.997925,507.833527 
	C375.640228,507.883728 360.282532,507.933960 344.461426,507.908783 
z"/>
<path fill="#FFDB4E" opacity="1.000000" stroke="none" 
	d="
M391.461365,507.908875 
	C392.546753,505.959351 393.779694,503.643921 395.690857,502.275940 
	C436.467804,473.088867 477.322235,444.010040 518.158691,414.906067 
	C558.995544,385.801910 599.823914,356.685822 640.667847,327.591461 
	C652.154236,319.409332 663.682007,311.285156 675.526367,303.077637 
	C676.901428,313.391418 677.940979,323.761963 678.550781,334.580078 
	C676.103760,336.125305 673.948242,337.028534 672.089783,338.349731 
	C640.961060,360.479462 609.859497,382.647491 578.772034,404.835144 
	C536.465759,435.029785 494.137756,465.194275 451.931641,495.528351 
	C446.925232,499.126556 442.625458,503.708099 437.998169,507.833801 
	C422.640381,507.883972 407.282593,507.934113 391.461365,507.908875 
z"/>
<path fill="#FFD848" opacity="1.000000" stroke="none" 
	d="
M401.998474,528.166443 
	C418.355988,528.117676 434.713501,528.068848 451.471527,528.424927 
	C450.603455,530.079346 449.474274,531.523254 448.044861,532.548401 
	C432.930969,543.387573 417.754852,554.139893 402.623718,564.955078 
	C370.878326,587.645630 339.152893,610.364014 307.412811,633.061951 
	C290.934326,644.846069 274.412415,656.569946 258.008423,668.456726 
	C256.599670,669.477539 255.931808,671.520874 254.919785,673.089233 
	C244.498169,668.773804 234.076553,664.458313 223.390366,659.657532 
	C224.110748,658.098694 224.946884,656.818787 226.104156,655.984253 
	C235.659561,649.093140 245.280563,642.293091 254.870377,635.449585 
	C302.279633,601.617493 349.698547,567.798767 397.046783,533.881409 
	C399.039429,532.453979 400.363129,530.092651 401.998474,528.166443 
z"/>
<path fill="#FFDB4F" opacity="1.000000" stroke="none" 
	d="
M401.534973,528.093201 
	C400.363129,530.092651 399.039429,532.453979 397.046783,533.881409 
	C349.698547,567.798767 302.279633,601.617493 254.870377,635.449585 
	C245.280563,642.293091 235.659561,649.093140 226.104156,655.984253 
	C224.946884,656.818787 224.110748,658.098694 223.062378,659.502930 
	C212.403152,654.922729 203.380585,647.838989 195.405792,639.342346 
	C197.759644,638.141602 200.107086,637.620544 201.911606,636.336426 
	C249.339981,602.587341 296.725952,568.778625 344.056580,534.892578 
	C346.647705,533.037537 348.697174,530.425842 350.998779,528.166382 
	C367.689667,528.117554 384.380554,528.068726 401.534973,528.093201 
z"/>
<path fill="#FFD641" opacity="1.000000" stroke="none" 
	d="
M255.106995,673.437683 
	C255.931808,671.520874 256.599670,669.477539 258.008423,668.456726 
	C274.412415,656.569946 290.934326,644.846069 307.412811,633.061951 
	C339.152893,610.364014 370.878326,587.645630 402.623718,564.955078 
	C417.754852,554.139893 432.930969,543.387573 448.044861,532.548401 
	C449.474274,531.523254 450.603455,530.079346 451.934937,528.498352 
	C466.022552,528.117920 480.047241,528.069031 494.535461,528.093384 
	C490.754944,531.927368 486.762329,536.028259 482.219574,539.384521 
	C468.802887,549.297058 455.165253,558.910339 441.627899,568.659912 
	C440.830261,569.234375 440.155029,569.978760 438.732605,570.824402 
	C435.485474,570.670227 432.883057,569.847046 430.379059,570.080322 
	C413.778534,571.627319 402.563843,583.601318 400.833099,598.998779 
	C396.748505,601.416931 392.466370,603.557129 388.610321,606.296936 
	C355.185791,630.045898 321.834961,653.898621 288.482513,677.748901 
	C287.581573,678.393127 286.909760,679.357788 286.065186,680.502991 
	C277.157867,678.819702 268.315979,676.808655 259.475647,674.790771 
	C258.078217,674.471802 256.687866,674.121765 255.106995,673.437683 
z"/>
<path fill="#FFD948" opacity="1.000000" stroke="none" 
	d="
M438.461609,507.908875 
	C442.625458,503.708099 446.925232,499.126556 451.931641,495.528351 
	C494.137756,465.194275 536.465759,435.029785 578.772034,404.835144 
	C609.859497,382.647491 640.961060,360.479462 672.089783,338.349731 
	C673.948242,337.028534 676.103760,336.125305 678.477295,335.012817 
	C678.882629,343.022705 678.931702,351.047363 678.591187,359.621643 
	C669.995422,366.107941 661.813721,372.079010 653.578491,377.975128 
	C622.106262,400.507996 590.627747,423.032104 559.130371,445.529816 
	C532.632935,464.456146 506.080078,483.305145 479.654022,502.330444 
	C477.981720,503.534454 477.196411,505.970459 475.998505,507.833374 
	C463.640686,507.883545 451.282898,507.933746 438.461609,507.908875 
z"/>
<path fill="#FFE872" opacity="1.000000" stroke="none" 
	d="
M521.881592,261.960663 
	C522.429993,233.133713 522.978394,204.306763 523.535950,174.999588 
	C531.954468,174.999588 540.553345,174.999649 549.152161,174.999573 
	C561.463196,174.999481 573.784241,174.688202 586.082703,175.080627 
	C600.336243,175.535431 613.974854,178.537201 625.749146,187.873535 
	C620.011597,192.745087 614.360596,197.075119 608.580811,201.225861 
	C585.802490,217.584091 563.025940,233.945572 540.150940,250.167908 
	C534.244202,254.356857 527.981018,258.043365 521.881592,261.960663 
z"/>
<path fill="#FFD43B" opacity="1.000000" stroke="none" 
	d="
M670.833435,408.998169 
	C668.225769,417.773041 665.957153,426.666626 662.935730,435.296661 
	C657.590698,450.563843 651.527710,465.525330 642.044373,478.857086 
	C630.710449,494.790405 616.035095,505.735199 596.120789,506.820251 
	C575.097229,507.965668 553.994446,507.656189 532.528931,507.577515 
	C532.910339,506.357422 533.581909,505.391876 534.483398,504.748444 
	C575.835632,475.232758 617.189514,445.719330 658.608276,416.297241 
	C662.465393,413.557373 666.748230,411.416931 670.833435,408.998169 
z"/>
<path fill="#FFDD55" opacity="1.000000" stroke="none" 
	d="
M350.541199,528.092773 
	C348.697174,530.425842 346.647705,533.037537 344.056580,534.892578 
	C296.725952,568.778625 249.339981,602.587341 201.911606,636.336426 
	C200.107086,637.620544 197.759644,638.141602 195.273804,639.029480 
	C190.583710,632.624573 186.284988,626.208496 181.935684,619.417725 
	C187.943375,615.016785 194.118317,611.154175 200.039169,606.934998 
	C222.083435,591.226257 244.017120,575.362305 266.044067,559.629089 
	C288.343292,543.701416 310.695618,527.848022 333.051178,511.999390 
	C335.070862,510.567596 337.284210,509.408936 339.761292,508.083069 
	C340.114990,514.510193 340.114990,520.977539 340.114990,528.019165 
	C343.539520,528.019165 346.811584,528.019165 350.541199,528.092773 
z"/>
<path fill="#FFD744" opacity="1.000000" stroke="none" 
	d="
M476.461975,507.908142 
	C477.196411,505.970459 477.981720,503.534454 479.654022,502.330444 
	C506.080078,483.305145 532.632935,464.456146 559.130371,445.529816 
	C590.627747,423.032104 622.106262,400.507996 653.578491,377.975128 
	C661.813721,372.079010 669.995422,366.107941 678.517578,360.085114 
	C678.165344,367.878967 677.497131,375.758942 676.107117,383.884583 
	C673.220703,385.331726 670.915405,386.336090 668.912903,387.764801 
	C644.454651,405.215271 620.069519,422.768341 595.607788,440.213928 
	C567.763733,460.071747 539.833557,479.808990 512.021912,499.711945 
	C508.751709,502.052216 505.994080,505.108704 502.998779,507.833130 
	C494.307678,507.883057 485.616577,507.932953 476.461975,507.908142 
z"/>
<path fill="#FFD640" opacity="1.000000" stroke="none" 
	d="
M503.462280,507.907715 
	C505.994080,505.108704 508.751709,502.052216 512.021912,499.711945 
	C539.833557,479.808990 567.763733,460.071747 595.607788,440.213928 
	C620.069519,422.768341 644.454651,405.215271 668.912903,387.764801 
	C670.915405,386.336090 673.220703,385.331726 675.742798,384.101715 
	C674.462646,392.143097 672.824951,400.212982 671.010376,408.640503 
	C666.748230,411.416931 662.465393,413.557373 658.608276,416.297241 
	C617.189514,445.719330 575.835632,475.232758 534.483398,504.748444 
	C533.581909,505.391876 532.910339,506.357422 532.065491,507.502869 
	C522.641541,507.882812 513.283691,507.932556 503.462280,507.907715 
z"/>
<path fill="#FFE56C" opacity="1.000000" stroke="none" 
	d="
M521.527344,262.162903 
	C527.981018,258.043365 534.244202,254.356857 540.150940,250.167908 
	C563.025940,233.945572 585.802490,217.584091 608.580811,201.225861 
	C614.360596,197.075119 620.011597,192.745087 625.885254,188.194595 
	C630.689636,191.897995 635.359192,195.871902 639.950439,199.934326 
	C641.032715,200.891953 641.851135,202.147675 642.913086,203.580292 
	C635.698914,209.257294 628.417358,214.696991 621.017090,219.970215 
	C585.882507,245.006134 550.723755,270.008179 515.530090,294.961029 
	C514.134705,295.950378 512.298279,296.317627 510.277710,296.967163 
	C513.391968,287.358398 516.955811,277.778320 520.346252,268.137238 
	C520.978699,266.338684 520.915344,264.295441 521.527344,262.162903 
z"/>
<path fill="#FFE872" opacity="1.000000" stroke="none" 
	d="
M175.094971,553.254700 
	C175.456497,553.214478 175.532944,553.466736 175.278351,553.873169 
	C175.168274,553.976196 175.030853,553.496033 175.094971,553.254700 
z"/>
<path fill="#4A8ABC" opacity="1.000000" stroke="none" 
	d="
M291.542664,3.102606 
	C290.216919,6.044988 288.761139,9.191205 286.612122,11.756755 
	C276.767761,23.509275 266.704865,35.078487 256.793915,46.775791 
	C255.652222,48.123287 254.968872,49.859123 253.560303,51.715034 
	C251.062439,52.006897 249.077255,52.001919 247.092117,51.989815 
	C237.508881,51.931393 229.884659,55.741142 224.049973,63.369007 
	C217.724579,71.638374 215.787842,80.787109 218.046783,90.889984 
	C214.008484,96.098206 210.112503,101.424805 205.900787,106.488792 
	C198.298035,115.630051 190.519623,124.625557 182.776932,133.649643 
	C181.823761,134.760574 180.640289,135.673904 179.211380,137.007446 
	C177.955688,135.233566 176.878387,133.711700 175.488113,132.092163 
	C175.116287,119.005066 174.455017,105.982162 175.174210,93.035942 
	C175.844269,80.974045 176.929764,68.743568 179.710968,57.033482 
	C184.419785,37.207424 199.011230,25.673464 216.960907,18.184853 
	C232.699265,11.618793 249.303253,8.095627 266.201324,5.997286 
	C274.493256,4.967620 282.795685,4.022429 291.542664,3.102606 
z"/>
<path fill="#000000" opacity="1.000000" stroke="none" 
	d="
M218.362930,91.075943 
	C215.787842,80.787109 217.724579,71.638374 224.049973,63.369007 
	C229.884659,55.741142 237.508881,51.931393 247.092117,51.989815 
	C249.077255,52.001919 251.062439,52.006897 253.506042,52.073296 
	C261.213654,54.378235 267.331848,58.437721 271.750916,64.544281 
	C280.870544,77.146347 278.479187,96.499519 265.034729,106.794983 
	C247.418701,120.284958 223.695145,109.137276 218.362930,91.075943 
z"/>
<path fill="#959595" opacity="1.000000" stroke="none" 
	d="
M493.001221,764.998779 
	C485.387268,762.252563 477.772095,759.507507 469.422943,756.497925 
	C476.572571,754.235229 482.030304,757.036743 487.783661,759.747314 
	C488.017883,760.016663 488.003998,759.996826 487.728760,760.005737 
	C487.261169,760.482056 486.836731,761.316772 486.910248,761.363159 
	C488.908569,762.625488 490.957825,763.807190 492.998535,765.002441 
	C492.998535,765.002441 493.000000,765.000000 493.001221,764.998779 
z"/>
<path fill="#959595" opacity="1.000000" stroke="none" 
	d="
M203.070862,758.544067 
	C202.302826,758.223389 201.847580,758.037598 201.369461,757.842468 
	C206.782333,754.264099 214.407135,752.796265 221.081482,754.754761 
	C214.308212,756.256592 208.845947,757.467773 203.070862,758.544067 
z"/>
<path fill="#959595" opacity="1.000000" stroke="none" 
	d="
M377.494629,742.036255 
	C369.252136,742.500366 361.389465,742.945923 353.526764,743.391541 
	C353.511963,743.008667 353.497162,742.625793 353.482361,742.242920 
	C362.186951,741.751465 370.891571,741.260010 379.596161,740.768555 
	C379.624237,741.075684 379.652313,741.382751 379.680420,741.689819 
	C379.078430,741.799133 378.476440,741.908386 377.494629,742.036255 
z"/>
<path fill="#959595" opacity="1.000000" stroke="none" 
	d="
M313.165649,742.992676 
	C309.605011,742.651489 306.519226,742.310242 303.433441,741.968994 
	C303.457428,741.604858 303.481415,741.240662 303.505402,740.876526 
	C307.656860,741.078735 311.809692,741.256165 315.959320,741.490173 
	C320.084534,741.722778 324.206512,742.012268 328.364594,742.992676 
	C323.456543,742.992676 318.548492,742.992676 313.165649,742.992676 
z"/>
<path fill="#959595" opacity="1.000000" stroke="none" 
	d="
M460.676331,751.382446 
	C463.280365,752.067627 465.520050,752.628662 467.765686,753.191223 
	C467.449493,754.004211 467.142334,754.793945 466.697174,755.938538 
	C462.887543,754.941040 458.979187,753.917725 455.070862,752.894409 
	C455.082581,752.576050 455.094330,752.257629 455.106079,751.939270 
	C456.841400,751.712280 458.576691,751.485291 460.676331,751.382446 
z"/>
<path fill="#959595" opacity="1.000000" stroke="none" 
	d="
M187.001221,767.001221 
	C189.524277,763.518250 195.398834,760.697876 202.285233,760.034058 
	C196.883667,762.575623 192.298141,764.733276 187.355103,766.944214 
	C186.997559,766.997559 187.000000,767.000000 187.001221,767.001221 
z"/>
<path fill="#8D8D8D" opacity="1.000000" stroke="none" 
	d="
M446.002472,752.997681 
	C445.675598,752.826538 445.346252,752.657837 445.016907,752.489136 
	C445.265472,752.551086 445.514008,752.613098 445.879913,752.839600 
	C445.997284,753.004211 446.000000,753.000000 446.002472,752.997681 
z"/>
<path fill="#808080" opacity="1.000000" stroke="none" 
	d="
M243.817596,752.565186 
	C243.864792,752.420593 243.967087,752.373474 244.069397,752.326416 
	C244.003830,752.438477 243.938263,752.550598 243.817596,752.565186 
z"/>
<path fill="#959595" opacity="1.000000" stroke="none" 
	d="
M244.513611,759.519592 
	C244.486038,759.531921 244.541199,759.507263 244.513611,759.519592 
z"/>
<path fill="#959595" opacity="1.000000" stroke="none" 
	d="
M456.096436,765.954651 
	C456.000000,766.000000 456.207550,765.655151 456.207550,765.655151 
	C456.207550,765.655151 456.192841,765.909302 456.096436,765.954651 
z"/>
<path fill="#808080" opacity="1.000000" stroke="none" 
	d="
M238.514923,753.487732 
	C238.528076,753.516968 238.501755,753.458496 238.514923,753.487732 
z"/>
<path fill="#808080" opacity="1.000000" stroke="none" 
	d="
M258.481842,751.479248 
	C258.511078,751.465759 258.452606,751.492737 258.481842,751.479248 
z"/>
<path fill="#808080" opacity="1.000000" stroke="none" 
	d="
M493.361816,765.057129 
	C490.957825,763.807190 488.908569,762.625488 486.910248,761.363159 
	C486.836731,761.316772 487.261169,760.482056 487.738831,760.008057 
	C491.210236,761.826355 494.396332,763.651306 497.802856,765.737671 
	C496.590576,765.703369 495.157837,765.407654 493.361816,765.057129 
z"/>
<path fill="#000000" opacity="1.000000" stroke="none" 
	d="
M400.907715,599.433105 
	C402.563843,583.601318 413.778534,571.627319 430.379059,570.080322 
	C432.883057,569.847046 435.485474,570.670227 438.464172,571.031738 
	C449.252869,575.357056 457.114197,581.696899 460.207245,593.330811 
	C465.236694,612.248169 450.552795,629.382874 434.733459,631.140869 
	C416.182739,633.202332 400.449921,617.640625 400.907715,599.433105 
z"/>
</svg>